<mxfile host="app.diagrams.net" modified="2022-06-01T12:20:11.394Z" agent="5.0 (Windows)" etag="4AcOa7oZtKRzPwKbv-iH" version="16.6.6" type="github">
  <diagram id="WNKXjPCiWO2OIPkjszWN" name="Page-1">
    <mxGraphModel dx="1408" dy="710" grid="1" gridSize="10" guides="1" tooltips="1" connect="1" arrows="1" fold="1" page="1" pageScale="1" pageWidth="850" pageHeight="1100" math="0" shadow="0">
      <root>
        <mxCell id="0" />
        <mxCell id="1" parent="0" />
        <mxCell id="tvc5JZ5NNMLO_PT7YMKu-3" value="" style="shape=or;" vertex="1" parent="1">
          <mxGeometry x="490" y="280" width="60" height="80" as="geometry" />
        </mxCell>
        <mxCell id="tvc5JZ5NNMLO_PT7YMKu-4" value="" style="shape=tape;" vertex="1" parent="1">
          <mxGeometry x="270" y="210" width="120" height="100" as="geometry" />
        </mxCell>
        <mxCell id="tvc5JZ5NNMLO_PT7YMKu-5" value="" style="shape=or;" vertex="1" parent="1">
          <mxGeometry x="220" y="450" width="60" height="80" as="geometry" />
        </mxCell>
      </root>
    </mxGraphModel>
  </diagram>
</mxfile>
